<svg width="186" height="189" viewBox="0 0 186 189" fill="none" xmlns="http://www.w3.org/2000/svg">
<path d="M60.0811 2H3C2.44772 2 2 2.44771 2 3V56.5C2 57.0523 2.44771 57.5 3 57.5H55C55.5523 57.5 56 57.9477 56 58.5V69.5831C56 69.8499 55.8934 70.1056 55.7038 70.2934L2.29619 123.207C2.10664 123.394 2 123.65 2 123.917V186C2 186.552 2.44772 187 3 187H66.0936C66.3542 187 66.6045 186.898 66.7912 186.716L121.802 133.153C122.436 132.536 123.5 132.985 123.5 133.869V186C123.5 186.552 123.948 187 124.5 187H183.5C184.052 187 184.5 186.552 184.5 186V128.41C184.5 128.147 184.397 127.895 184.213 127.708L60.7938 2.29857C60.6059 2.10757 60.3491 2 60.0811 2Z" stroke="#188C44" stroke-width="3"/>
<path d="M183.5 2H81.4558C80.5591 2 80.1156 3.08912 80.7572 3.71554L182.801 103.342C183.435 103.96 184.5 103.511 184.5 102.626V3C184.5 2.44772 184.052 2 183.5 2Z" stroke="#8ABE3F" stroke-width="3"/>
</svg>
