<svg width="195" height="197" viewBox="0 0 195 197" fill="none" xmlns="http://www.w3.org/2000/svg">
<g filter="url(#filter0_d_1_70)">
<path d="M63.5858 2H7C6.44772 2 6 2.44771 6 3V58C6 58.5523 6.44772 59 7 59H58.5C59.0523 59 59.5 59.4477 59.5 60V69.5802C59.5 69.8487 59.392 70.1059 59.2004 70.294L6.2996 122.206C6.10796 122.394 6 122.651 6 122.92V186C6 186.552 6.44772 187 7 187H70.5884C70.8521 187 71.1051 186.896 71.2924 186.71L126.296 132.189C126.927 131.563 128 132.01 128 132.899V186C128 186.552 128.448 187 129 187H188C188.552 187 189 186.552 189 186V127.414C189 127.149 188.895 126.895 188.707 126.707L64.2929 2.29289C64.1054 2.10536 63.851 2 63.5858 2Z" fill="#188C44"/>
<path d="M83.2562 3.71538L187.301 105.341C187.935 105.959 189 105.511 189 104.625V3C189 2.44772 188.552 2 188 2H83.955C83.0584 2 82.6148 3.08889 83.2562 3.71538Z" fill="#188C44"/>
<path d="M63.5858 2H7C6.44772 2 6 2.44771 6 3V58C6 58.5523 6.44772 59 7 59H58.5C59.0523 59 59.5 59.4477 59.5 60V69.5802C59.5 69.8487 59.392 70.1059 59.2004 70.294L6.2996 122.206C6.10796 122.394 6 122.651 6 122.92V186C6 186.552 6.44772 187 7 187H70.5884C70.8521 187 71.1051 186.896 71.2924 186.71L126.296 132.189C126.927 131.563 128 132.01 128 132.899V186C128 186.552 128.448 187 129 187H188C188.552 187 189 186.552 189 186V127.414C189 127.149 188.895 126.895 188.707 126.707L64.2929 2.29289C64.1054 2.10536 63.851 2 63.5858 2Z" stroke="#188C44" stroke-width="3"/>
<path d="M83.2562 3.71538L187.301 105.341C187.935 105.959 189 105.511 189 104.625V3C189 2.44772 188.552 2 188 2H83.955C83.0584 2 82.6148 3.08889 83.2562 3.71538Z" stroke="#188C44" stroke-width="3"/>
</g>
<g filter="url(#filter1_d_1_70)">
<path d="M83.7562 3.71538L187.801 105.341C188.435 105.959 189.5 105.511 189.5 104.625V3C189.5 2.44772 189.052 2 188.5 2H84.455C83.5584 2 83.1148 3.08889 83.7562 3.71538Z" fill="#8ABE3F"/>
<path d="M83.7562 3.71538L187.801 105.341C188.435 105.959 189.5 105.511 189.5 104.625V3C189.5 2.44772 189.052 2 188.5 2H84.455C83.5584 2 83.1148 3.08889 83.7562 3.71538Z" stroke="#8ABE3F" stroke-width="3"/>
</g>
<defs>
<filter id="filter0_d_1_70" x="0.5" y="0.5" width="194" height="196" filterUnits="userSpaceOnUse" color-interpolation-filters="sRGB">
<feFlood flood-opacity="0" result="BackgroundImageFix"/>
<feColorMatrix in="SourceAlpha" type="matrix" values="0 0 0 0 0 0 0 0 0 0 0 0 0 0 0 0 0 0 127 0" result="hardAlpha"/>
<feOffset dy="4"/>
<feGaussianBlur stdDeviation="2"/>
<feComposite in2="hardAlpha" operator="out"/>
<feColorMatrix type="matrix" values="0 0 0 0 0 0 0 0 0 0 0 0 0 0 0 0 0 0 0.25 0"/>
<feBlend mode="normal" in2="BackgroundImageFix" result="effect1_dropShadow_1_70"/>
<feBlend mode="normal" in="SourceGraphic" in2="effect1_dropShadow_1_70" result="shape"/>
</filter>
<filter id="filter1_d_1_70" x="77.9499" y="0.5" width="117.05" height="114.63" filterUnits="userSpaceOnUse" color-interpolation-filters="sRGB">
<feFlood flood-opacity="0" result="BackgroundImageFix"/>
<feColorMatrix in="SourceAlpha" type="matrix" values="0 0 0 0 0 0 0 0 0 0 0 0 0 0 0 0 0 0 127 0" result="hardAlpha"/>
<feOffset dy="4"/>
<feGaussianBlur stdDeviation="2"/>
<feComposite in2="hardAlpha" operator="out"/>
<feColorMatrix type="matrix" values="0 0 0 0 0 0 0 0 0 0 0 0 0 0 0 0 0 0 0.25 0"/>
<feBlend mode="normal" in2="BackgroundImageFix" result="effect1_dropShadow_1_70"/>
<feBlend mode="normal" in="SourceGraphic" in2="effect1_dropShadow_1_70" result="shape"/>
</filter>
</defs>
</svg>
